<svg version="1.1" id="Layer_1" xmlns="http://www.w3.org/2000/svg" xmlns:xlink="http://www.w3.org/1999/xlink" x="0px" y="0px"
	 width="100%" viewBox="0 0 512 512" enable-background="new 0 0 512 512" xml:space="preserve">
<path fill="transparent" opacity="1.000000" stroke="none" 
	d="
M278.000000,513.000000 
	C185.355820,513.000000 93.211639,513.000000 1.033728,513.000000 
	C1.033728,342.397461 1.033728,171.794907 1.033728,1.096182 
	C171.560867,1.096182 342.121796,1.096182 512.841370,1.096182 
	C512.841370,171.666550 512.841370,342.333252 512.841370,513.000000 
	C434.794891,513.000000 356.647430,513.000000 278.000000,513.000000 
M332.316528,133.855042 
	C323.292053,129.565720 314.542969,124.510895 305.186432,121.144485 
	C284.952057,113.864334 264.060150,111.526466 242.487213,113.837029 
	C226.323639,115.568214 210.926620,119.598305 196.337936,126.386787 
	C174.642517,136.482208 156.539536,151.162750 142.032593,170.372787 
	C124.611053,193.442276 115.120003,219.460464 113.227592,248.057358 
	C112.516243,258.806732 113.860565,269.776672 115.092796,280.551666 
	C117.311348,299.951324 124.639091,317.610504 135.210892,334.740936 
	C138.001907,338.530060 140.824539,342.296326 143.578476,346.112213 
	C155.688004,362.891235 171.594223,375.307709 189.670685,384.815643 
	C205.515350,393.149628 222.400665,398.442352 240.459473,400.154999 
	C256.484161,401.674744 272.296875,401.420685 287.989929,397.971771 
	C323.304871,390.210571 351.894836,371.596832 373.455109,342.812500 
	C389.075867,321.957825 398.444611,298.043915 400.755463,272.089203 
	C402.461639,252.926407 401.510315,233.556808 395.498566,214.969559 
	C384.375244,180.578201 363.980835,153.234283 332.316528,133.855042 
M426.547852,403.033813 
	C419.020233,395.505249 411.812439,387.610352 403.810822,380.624786 
	C400.516998,377.749237 395.486603,375.291443 391.296509,375.368896 
	C384.390961,375.496552 378.587982,379.423676 376.241638,386.542877 
	C373.950287,393.495270 375.915466,399.513672 381.109619,404.631317 
	C388.693085,412.103119 396.344940,419.516968 403.657898,427.248505 
	C410.038788,433.994598 421.524872,432.935913 427.356750,427.098694 
	C433.933807,420.515625 433.708557,410.258179 426.547852,403.033813 
M104.988281,431.003815 
	C115.040085,421.443665 125.335373,412.119110 134.973160,402.158386 
	C137.394928,399.655487 138.946167,395.035370 138.728088,391.522949 
	C138.296478,384.571075 134.740387,378.792755 127.668976,376.312317 
	C120.937248,373.951019 114.932594,375.629242 109.904785,380.607697 
	C101.988029,388.446686 94.102745,396.318451 86.296494,404.267059 
	C84.968529,405.619263 83.713097,407.287628 83.092613,409.045837 
	C80.828423,415.461517 81.388329,421.707947 86.307922,426.665863 
	C91.213028,431.609131 97.300797,433.328156 104.988281,431.003815 
M108.546585,132.031784 
	C112.053688,136.211426 116.932693,137.879822 121.985252,137.858505 
	C128.746201,137.830002 133.852158,133.746231 136.424911,127.886162 
	C139.164169,121.646805 138.183121,115.040695 133.302780,109.903397 
	C125.864334,102.073296 118.150032,94.498894 110.403381,86.969719 
	C102.675598,79.458878 93.442856,80.526993 86.870010,86.809044 
	C80.135284,93.245811 80.157387,104.335800 87.166687,110.791908 
	C94.374008,117.430420 101.092766,124.599365 108.546585,132.031784 
M423.188080,84.027954 
	C416.621521,81.040886 410.170532,80.659637 404.639252,85.970551 
	C396.592682,93.696510 388.528870,101.446022 381.084534,109.735229 
	C378.464752,112.652328 376.479309,117.123268 376.264648,120.998825 
	C375.888977,127.782089 379.509552,133.205841 385.792175,136.279007 
	C391.867157,139.250626 399.596954,137.800858 404.564880,132.897583 
	C412.150452,125.410713 419.383881,117.543427 427.264221,110.385262 
	C435.507141,102.897758 431.765106,87.765297 423.188080,84.027954 
M271.704346,25.194248 
	C268.133392,18.650959 262.543671,16.517485 255.279755,16.911661 
	C247.310410,17.344118 241.020813,23.289249 241.005783,31.275257 
	C240.983566,43.095699 240.960434,54.916489 241.043320,66.736389 
	C241.055511,68.475090 241.331284,70.350334 242.027451,71.922203 
	C245.251282,79.201248 251.147369,81.082222 258.798279,81.225937 
	C265.122253,81.344719 273.379578,73.363205 273.137665,67.120308 
	C272.667389,54.985077 273.036072,42.818489 272.955597,30.665569 
	C272.945190,29.095001 272.331635,27.528427 271.704346,25.194248 
M19.345623,266.852234 
	C23.184479,271.485870 27.971304,273.321777 34.097759,273.106415 
	C44.908672,272.726410 55.742874,273.040894 66.566521,272.958557 
	C68.307953,272.945312 70.176476,272.692139 71.761955,272.020447 
	C79.119179,268.903534 81.471565,263.061371 81.081291,255.354919 
	C80.676331,247.358337 74.733086,241.023407 66.789749,241.006577 
	C54.799839,240.981186 42.809612,240.965042 30.820150,241.042435 
	C29.247448,241.052597 27.604994,241.439621 26.119799,241.989548 
	C17.205837,245.290161 14.237656,256.522705 19.345623,266.852234 
M461.500977,241.000000 
	C456.844360,241.000015 452.187683,240.989990 447.531097,241.002213 
	C438.850861,241.024994 433.002960,247.268509 432.999969,256.500946 
	C432.996674,266.640381 438.573730,272.984039 447.540649,272.996155 
	C459.182159,273.011902 470.823792,273.011658 482.465302,272.996155 
	C491.153870,272.984589 496.997009,266.734222 497.000031,257.491150 
	C497.003387,247.349564 491.431549,241.022430 482.457550,241.002808 
	C475.805267,240.988251 469.152924,240.999985 461.500977,241.000000 
M272.828583,443.360382 
	C269.428314,435.765137 263.784515,432.351410 255.282059,432.899536 
	C247.320328,433.412811 241.021179,439.284332 241.005890,447.265533 
	C240.983276,459.083008 240.969147,470.900757 241.036743,482.717865 
	C241.045761,484.295715 241.281433,485.982788 241.876968,487.427673 
	C244.504929,493.803650 249.191971,496.540039 256.261292,497.205383 
	C265.574280,498.081909 273.918365,489.948700 273.204681,480.145660 
	C272.336792,468.224457 272.987488,456.192749 272.828583,443.360382 
z"/>
<path fill="#FFD64F" opacity="1.000000" stroke="none" 
	d="
M134.911224,334.107239 
	C124.639091,317.610504 117.311348,299.951324 115.092796,280.551666 
	C113.860565,269.776672 112.516243,258.806732 113.227592,248.057358 
	C115.120003,219.460464 124.611053,193.442276 142.032593,170.372787 
	C156.539536,151.162750 174.642517,136.482208 196.337936,126.386787 
	C210.926620,119.598305 226.323639,115.568214 242.487213,113.837029 
	C264.060150,111.526466 284.952057,113.864334 305.186432,121.144485 
	C314.542969,124.510895 323.292053,129.565720 332.664459,134.378601 
	C333.197052,135.536606 333.267609,136.235107 333.582672,136.796341 
	C350.183319,166.368149 356.566742,197.783752 351.062988,231.471283 
	C344.902832,269.176544 326.847504,299.903839 296.625183,323.099335 
	C266.731293,346.042664 232.778687,355.683655 195.105255,352.074829 
	C175.110504,350.159515 156.364792,344.551697 138.881668,334.647278 
	C137.802536,334.035950 136.245773,334.267731 134.911224,334.107239 
z"/>
<path fill="#FFC166" opacity="1.000000" stroke="none" 
	d="
M135.061066,334.424072 
	C136.245773,334.267731 137.802536,334.035950 138.881668,334.647278 
	C156.364792,344.551697 175.110504,350.159515 195.105255,352.074829 
	C232.778687,355.683655 266.731293,346.042664 296.625183,323.099335 
	C326.847504,299.903839 344.902832,269.176544 351.062988,231.471283 
	C356.566742,197.783752 350.183319,166.368149 333.582672,136.796341 
	C333.267609,136.235107 333.197052,135.536606 332.982910,134.545593 
	C363.980835,153.234283 384.375244,180.578201 395.498566,214.969559 
	C401.510315,233.556808 402.461639,252.926407 400.755463,272.089203 
	C398.444611,298.043915 389.075867,321.957825 373.455109,342.812500 
	C351.894836,371.596832 323.304871,390.210571 287.989929,397.971771 
	C272.296875,401.420685 256.484161,401.674744 240.459473,400.154999 
	C222.400665,398.442352 205.515350,393.149628 189.670685,384.815643 
	C171.594223,375.307709 155.688004,362.891235 143.578476,346.112213 
	C140.824539,342.296326 138.001907,338.530060 135.061066,334.424072 
z"/>
<path fill="#FFC166" opacity="1.000000" stroke="none" 
	d="
M426.796204,403.298950 
	C433.708557,410.258179 433.933807,420.515625 427.356750,427.098694 
	C421.524872,432.935913 410.038788,433.994598 403.657898,427.248505 
	C396.344940,419.516968 388.693085,412.103119 381.109619,404.631317 
	C375.915466,399.513672 373.950287,393.495270 376.241638,386.542877 
	C378.587982,379.423676 384.390961,375.496552 391.296509,375.368896 
	C395.486603,375.291443 400.516998,377.749237 403.810822,380.624786 
	C411.812439,387.610352 419.020233,395.505249 426.796204,403.298950 
z"/>
<path fill="#FFC166" opacity="1.000000" stroke="none" 
	d="
M104.579147,431.002563 
	C97.300797,433.328156 91.213028,431.609131 86.307922,426.665863 
	C81.388329,421.707947 80.828423,415.461517 83.092613,409.045837 
	C83.713097,407.287628 84.968529,405.619263 86.296494,404.267059 
	C94.102745,396.318451 101.988029,388.446686 109.904785,380.607697 
	C114.932594,375.629242 120.937248,373.951019 127.668976,376.312317 
	C134.740387,378.792755 138.296478,384.571075 138.728088,391.522949 
	C138.946167,395.035370 137.394928,399.655487 134.973160,402.158386 
	C125.335373,412.119110 115.040085,421.443665 104.579147,431.002563 
z"/>
<path fill="#FFC166" opacity="1.000000" stroke="none" 
	d="
M108.285950,131.783997 
	C101.092766,124.599365 94.374008,117.430420 87.166687,110.791908 
	C80.157387,104.335800 80.135284,93.245811 86.870010,86.809044 
	C93.442856,80.526993 102.675598,79.458878 110.403381,86.969719 
	C118.150032,94.498894 125.864334,102.073296 133.302780,109.903397 
	C138.183121,115.040695 139.164169,121.646805 136.424911,127.886162 
	C133.852158,133.746231 128.746201,137.830002 121.985252,137.858505 
	C116.932693,137.879822 112.053688,136.211426 108.285950,131.783997 
z"/>
<path fill="#FFC166" opacity="1.000000" stroke="none" 
	d="
M423.539490,84.203979 
	C431.765106,87.765297 435.507141,102.897758 427.264221,110.385262 
	C419.383881,117.543427 412.150452,125.410713 404.564880,132.897583 
	C399.596954,137.800858 391.867157,139.250626 385.792175,136.279007 
	C379.509552,133.205841 375.888977,127.782089 376.264648,120.998825 
	C376.479309,117.123268 378.464752,112.652328 381.084534,109.735229 
	C388.528870,101.446022 396.592682,93.696510 404.639252,85.970551 
	C410.170532,80.659637 416.621521,81.040886 423.539490,84.203979 
z"/>
<path fill="#FFC166" opacity="1.000000" stroke="none" 
	d="
M271.850922,25.577126 
	C272.331635,27.528427 272.945190,29.095001 272.955597,30.665569 
	C273.036072,42.818489 272.667389,54.985077 273.137665,67.120308 
	C273.379578,73.363205 265.122253,81.344719 258.798279,81.225937 
	C251.147369,81.082222 245.251282,79.201248 242.027451,71.922203 
	C241.331284,70.350334 241.055511,68.475090 241.043320,66.736389 
	C240.960434,54.916489 240.983566,43.095699 241.005783,31.275257 
	C241.020813,23.289249 247.310410,17.344118 255.279755,16.911661 
	C262.543671,16.517485 268.133392,18.650959 271.850922,25.577126 
z"/>
<path fill="#FFC166" opacity="1.000000" stroke="none" 
	d="
M19.183743,266.498535 
	C14.237656,256.522705 17.205837,245.290161 26.119799,241.989548 
	C27.604994,241.439621 29.247448,241.052597 30.820150,241.042435 
	C42.809612,240.965042 54.799839,240.981186 66.789749,241.006577 
	C74.733086,241.023407 80.676331,247.358337 81.081291,255.354919 
	C81.471565,263.061371 79.119179,268.903534 71.761955,272.020447 
	C70.176476,272.692139 68.307953,272.945312 66.566521,272.958557 
	C55.742874,273.040894 44.908672,272.726410 34.097759,273.106415 
	C27.971304,273.321777 23.184479,271.485870 19.183743,266.498535 
z"/>
<path fill="#FFC166" opacity="1.000000" stroke="none" 
	d="
M462.000793,241.000000 
	C469.152924,240.999985 475.805267,240.988251 482.457550,241.002808 
	C491.431549,241.022430 497.003387,247.349564 497.000031,257.491150 
	C496.997009,266.734222 491.153870,272.984589 482.465302,272.996155 
	C470.823792,273.011658 459.182159,273.011902 447.540649,272.996155 
	C438.573730,272.984039 432.996674,266.640381 432.999969,256.500946 
	C433.002960,247.268509 438.850861,241.024994 447.531097,241.002213 
	C452.187683,240.989990 456.844360,241.000015 462.000793,241.000000 
z"/>
<path fill="#FFC166" opacity="1.000000" stroke="none" 
	d="
M272.904907,443.784607 
	C272.987488,456.192749 272.336792,468.224457 273.204681,480.145660 
	C273.918365,489.948700 265.574280,498.081909 256.261292,497.205383 
	C249.191971,496.540039 244.504929,493.803650 241.876968,487.427673 
	C241.281433,485.982788 241.045761,484.295715 241.036743,482.717865 
	C240.969147,470.900757 240.983276,459.083008 241.005890,447.265533 
	C241.021179,439.284332 247.320328,433.412811 255.282059,432.899536 
	C263.784515,432.351410 269.428314,435.765137 272.904907,443.784607 
z"/>
</svg>